<svg id="visual" viewBox="0 0 900 600" width="900" height="600" xmlns="http://www.w3.org/2000/svg" xmlns:xlink="http://www.w3.org/1999/xlink" version="1.1"><rect x="0" y="0" width="900" height="600" fill="#05386B"></rect><defs><linearGradient id="grad1_0" x1="33.3%" y1="100%" x2="100%" y2="0%"><stop offset="20%" stop-color="#05386b" stop-opacity="1"></stop><stop offset="80%" stop-color="#05386b" stop-opacity="1"></stop></linearGradient></defs><defs><linearGradient id="grad2_0" x1="0%" y1="100%" x2="66.7%" y2="0%"><stop offset="20%" stop-color="#05386b" stop-opacity="1"></stop><stop offset="80%" stop-color="#05386b" stop-opacity="1"></stop></linearGradient></defs><g transform="translate(900, 600)"><path d="M-243.4 0C-218.9 -15.2 -194.4 -30.4 -191.3 -51.2C-188.1 -72.1 -206.2 -98.6 -205.2 -118.5C-204.3 -138.4 -184.3 -151.7 -168.3 -168.3C-152.3 -184.9 -140.2 -204.9 -121.7 -210.8C-103.1 -216.7 -78.1 -208.5 -56.7 -211.5C-35.3 -214.6 -17.7 -229 0 -243.4L0 0Z" fill="#379683"></path></g><g transform="translate(0, 0)"><path d="M243.4 0C244.4 22.9 245.4 45.9 235.1 63C224.8 80.1 203.2 91.4 192.3 111C181.3 130.6 181 158.4 163.3 163.3C145.7 168.2 110.6 150.2 92.5 160.2C74.4 170.3 73.4 208.4 60.8 227C48.2 245.5 24.1 244.5 0 243.4L0 0Z" fill="#379683"></path></g></svg>